<?xml version="1.0" encoding="UTF-8"?><svg id="Calque_1" xmlns="http://www.w3.org/2000/svg" viewBox="0 0 548 433"><defs><style>.cls-1{fill:#fff;stroke:#1d1d1b;stroke-miterlimit:10;}</style></defs><path class="cls-1" d="M284.65-352.29c-123.29,0-246.59,51.61-339.24,154.85C-147.25-94.21-209.27,60.65-210,267.13c1.41,412.98,248,619.48,494.58,619.5,123.3,0,246.6-51.62,339.26-154.86,92.66-103.24,154.67-258.1,155.4-464.6-1.41-412.94-247.99-619.45-494.58-619.46Zm285.76,1011.79c-82.05,78.15-186.32,119.03-291.04,118.39-217.26-1.71-434.57-167.47-410.09-488.06,.93-12.11,2.64-23.99,4.06-35.73C-109.25,110.97-51.56,4.89,25.29-68.72c83.73-80.16,187.46-119.58,270.98-139.29,70.14-16.56,162.86-2.61,243.09,58.43,102.23,77.77,180.76,221.63,180.72,433.97-.02,169.51-62.7,292.26-149.68,375.1Z"/><path class="cls-1" d="M495.13-61.71c-74.14-45.3-150.43-36.25-187.24-2.02C266.71-25.45,180.09,2.98,105.19,60.03,37.38,111.7-19.22,184.39-44.48,286.15c-2.18,8.79-5.08,17.42-6.96,26.36-47.81,227.21,137.66,353.23,325.59,356.63,86.12,1.28,172.14-28.32,242.82-81.93,81.99-62.17,143.93-153.06,143.98-285.58,.06-189.57-76.29-308.67-165.82-363.34Zm-31.59,576.65c-58.36,30.21-127.07,47.38-194.6,45.47-158.61-5.1-308.71-92.14-241.11-225.19,2.96-5.83,6.81-11.15,9.86-17,31.43-60.19,88.75-99.55,147.41-129.46,66.22-33.74,133.09-59.19,134.42-108.22,1.58-58.59,62.96-83.37,131.39-54.4,76.35,32.32,150.69,125.95,150.89,292.71-.18,95.55-60.29,155.71-138.26,196.09Z"/><path class="cls-1" d="M542.64,336.08c0,94.26-149.65,122.37-278.92,115.59-129.27-6.78-274.39,8.19-217.38-65.66,20.67-26.78,50.26-28.2,68-30.78,78-11.33,119.12-11.99,108.67-82-13.33-89.33,120.72-170.54,183.68-159.22,62.94,11.32,135.97,78.11,135.97,222.07Z"/></svg>