<svg xmlns="http://www.w3.org/2000/svg" width="744.387" height="240" viewBox="0 0 744.387 240"><path d="M744.387 11.641v131.97c0 7.069-5.025 13.149-11.975 14.472l-65.461 12.52-65.452-12.52a14.734 14.734 0 0 1-11.975-14.473V11.641C589.524 5.238 594.762 0 601.156 0h131.59c6.403 0 11.64 5.238 11.64 11.641z" fill="#64afd6"/><path d="M744.387 123.733v19.877c0 7.07-5.025 13.15-11.975 14.473l-65.461 12.52-65.452-12.52a14.734 14.734 0 0 1-11.975-14.473v-19.877l77.427.435 77.436-.435z" fill="#8db539"/><path fill="#fff" d="M744.387 32.11l-60.057 72.403 60.057-49.823v4.47l-57.31 48.638 57.31-32.657v4.09L689.216 111.5l55.17-19.729v3.868l-53.7 19.887 53.7-9.162v3.739l-52.959 9.642 52.96.297v3.692l-77.436.435-77.427-.435v-3.692l52.95-.297-52.95-9.642v-3.739l53.7 9.162-53.7-19.887V91.78l55.162 19.72-55.162-32.259v-4.099l57.3 32.657-57.3-48.63V54.69l60.057 49.823-60.057-72.384v-4.997l63.333 74.632-51.377-90.16 2.702-1.554 52.386 89.567-34.942-97.702 2.933-1.064 36.034 97.304L643.853 0h3.22l17.74 97.415L665.36 0h3.193l.546 97.415L686.838 0h3.21l-16.74 98.155L709.352.851l2.924 1.064-34.942 97.702 52.385-89.567 2.703 1.554-51.378 90.16 63.343-74.641z"/><path d="M2.761 45.446c.278 0 .626.01 1.043.03.417.02.745.069.983.149.992.198 1.648.556 1.966 1.071.317.517.516 1.292.596 2.325.04.476.069.982.09 1.519.019.536.03 1.261.03 2.174v17.874c0 2.184.127 4.091.386 5.72.258 1.629.626 3.068 1.102 4.32.477 1.25 1.033 2.323 1.669 3.216a18.79 18.79 0 0 0 2.025 2.413c1.073.993 2.214 1.778 3.426 2.354a18.21 18.21 0 0 0 3.545 1.28c1.152.278 2.195.447 3.128.507.933.06 1.658.09 2.175.09.873 0 1.807-.051 2.8-.15a15.68 15.68 0 0 0 3.039-.625 18.58 18.58 0 0 0 3.187-1.341c1.092-.575 2.175-1.34 3.247-2.294a12.981 12.981 0 0 0 2.86-3.664 20.178 20.178 0 0 0 1.668-4.408c.397-1.57.655-3.178.775-4.826.119-1.648.178-3.287.178-4.915V52.714c0-.913.01-1.638.03-2.174.02-.537.05-1.043.09-1.52.079-1.032.267-1.807.565-2.324.298-.515.844-.873 1.639-1.071.357-.08.645-.129.864-.15.218-.02.426-.03.625-.03.318 0 .477-.119.477-.357 0-.317-.319-.476-.953-.476-.438 0-.924.01-1.46.03l-1.55.059c-.496.02-.922.04-1.28.06-.358.02-.596.03-.715.03-.08 0-.328-.01-.745-.03-.417-.02-.923-.04-1.519-.06-.596-.02-1.25-.039-1.966-.06-.715-.02-1.41-.03-2.085-.03-.636 0-.953.16-.953.477 0 .238.158.358.476.358.277 0 .626.01 1.043.03.417.02.744.069.983.149.992.198 1.647.556 1.966 1.071.317.517.515 1.292.595 2.325.04.476.07.982.09 1.519.02.536.03 1.261.03 2.174v16.623c0 3.097-.23 5.878-.685 8.34-.458 2.464-1.381 4.549-2.771 6.257-1.072 1.271-2.443 2.303-4.11 3.098a12.04 12.04 0 0 1-5.244 1.192c-1.708 0-3.267-.2-4.677-.597-1.41-.396-2.85-1.29-4.319-2.68a12.64 12.64 0 0 1-1.787-2.116c-.557-.813-1.034-1.796-1.43-2.948-.398-1.153-.706-2.513-.924-4.082-.219-1.568-.328-3.425-.328-5.57V52.713c0-.913.01-1.638.03-2.174.02-.537.05-1.043.09-1.52.079-1.032.267-1.826.566-2.382.297-.556.843-.894 1.638-1.013a7.36 7.36 0 0 1 .864-.15c.218-.02.426-.03.625-.03.318 0 .477-.119.477-.357 0-.317-.318-.476-.953-.476-.438 0-.964.01-1.58.03l-1.816.059c-.596.02-1.132.04-1.609.06-.476.02-.774.03-.893.03-.12 0-.428-.01-.924-.03-.497-.02-1.073-.04-1.728-.06-.655-.02-1.35-.039-2.085-.06-.736-.02-1.44-.03-2.115-.03-.636 0-.953.16-.953.477 0 .238.158.358.476.358zm54.037 44.207c1.35 0 2.572-.03 3.665-.09 1.092-.059 1.777-.089 2.055-.089.277 0 .973.03 2.085.09s2.522.09 4.23.09c.716 0 1.073-.16 1.073-.478 0-.237-.16-.357-.477-.357-.278 0-.705-.02-1.28-.06a8.15 8.15 0 0 1-1.699-.298 2.361 2.361 0 0 1-1.013-.595c-.278-.278-.506-.685-.685-1.222-.178-.536-.318-1.21-.417-2.025-.1-.813-.17-1.837-.208-3.068l-.775-28.539c.477.557 1.23 1.4 2.264 2.532a691.066 691.066 0 0 1 3.634 4.022c1.39 1.549 2.91 3.227 4.558 5.034a555.623 555.623 0 0 0 5.094 5.511 496.32 496.32 0 0 0 5.005 5.303 2252.89 2252.89 0 0 0 4.885 5.094c1.51 1.57 2.79 2.88 3.843 3.932 1.052 1.053 1.658 1.66 1.818 1.817.794.796 1.439 1.44 1.936 1.937.496.497.903.884 1.221 1.161.318.278.566.466.745.566.179.1.328.149.447.149s.208-.04.268-.12c.06-.079.109-.258.149-.535.04-.278.069-.694.09-1.25.019-.557.03-1.331.03-2.325l.118-34.913c0-1.788.12-3.069.358-3.843s.853-1.26 1.846-1.46c.358-.079.646-.128.864-.149.218-.02.408-.03.567-.03.436 0 .655-.139.655-.417 0-.277-.358-.416-1.073-.416-1.231 0-2.303.03-3.217.089-.914.06-1.53.09-1.847.09-.159 0-.447-.01-.864-.03s-.914-.04-1.489-.06c-.577-.02-1.192-.039-1.847-.06-.655-.02-1.32-.03-1.996-.03-.795 0-1.191.14-1.191.417 0 .278.158.418.476.418.238 0 .645.02 1.222.06.575.039 1.14.119 1.698.238.913.238 1.519.754 1.816 1.549.299.794.467 2.165.507 4.11l.656 30.266a73.147 73.147 0 0 1-2.205-2.353c-.993-1.092-2.145-2.353-3.456-3.783-1.31-1.43-2.71-2.958-4.2-4.588-1.49-1.627-2.97-3.236-4.439-4.826a1491.927 1491.927 0 0 1-6.702-7.208 1421.458 1421.458 0 0 0-5.869-6.316 379.64 379.64 0 0 1-4.319-4.677c-1.132-1.251-1.817-1.996-2.056-2.234a24.702 24.702 0 0 1-1.102-1.192c-.417-.476-.745-.715-.983-.715s-.408.21-.506.626c-.1.417-.15 1.202-.15 2.353l-.059 34.139c0 2.702-.11 4.588-.328 5.66-.218 1.072-.705 1.709-1.46 1.906a5.24 5.24 0 0 1-1.37.299c-.476.04-.834.06-1.072.06-.318 0-.476.119-.476.356 0 .318.317.477.952.477zm60.294-44.207c.198 0 .477.02.834.06.358.039.695.099 1.013.178 1.23.279 1.907 1.391 2.026 3.337.039.476.068.982.09 1.519.019.536.029 1.261.029 2.174v19.662c0 2.859-.01 5.412-.03 7.655-.02 2.245-.11 4.002-.268 5.273-.119.874-.288 1.609-.507 2.204-.218.596-.625.953-1.221 1.073-.278.08-.576.14-.893.179-.319.04-.617.06-.894.06-.319 0-.477.119-.477.356 0 .318.317.477.954.477.436 0 .972-.01 1.608-.03l1.847-.06c.596-.02 1.122-.039 1.579-.059.456-.02.724-.03.804-.03.08 0 .347.01.805.03.456.02 1.032.04 1.727.06.695.02 1.46.039 2.294.06.834.019 1.668.03 2.502.03.635 0 .954-.16.954-.478 0-.237-.16-.357-.477-.357-.278 0-.685-.02-1.221-.06a13.48 13.48 0 0 1-1.46-.178c-.914-.12-1.51-.477-1.788-1.073-.278-.595-.456-1.33-.535-2.204-.16-1.27-.249-3.028-.269-5.273-.02-2.243-.03-4.796-.03-7.655V52.714c0-.913.01-1.638.03-2.174.02-.537.05-1.043.09-1.52.079-1.032.268-1.817.566-2.353.298-.536.843-.883 1.638-1.042.358-.08.645-.129.864-.15.218-.02.426-.03.625-.03.318 0 .477-.119.477-.357 0-.317-.318-.476-.953-.476-.438 0-.974.01-1.609.03l-1.847.059c-.596.02-1.122.04-1.578.06-.458.02-.726.03-.805.03-.08 0-.348-.01-.804-.03-.457-.02-.983-.04-1.58-.06-.595-.02-1.23-.039-1.905-.06a60.11 60.11 0 0 0-1.728-.03c-.636 0-.954.16-.954.477 0 .238.158.358.477.358zm20.673 0c.2 0 .517.01.953.03.437.02.874.089 1.311.208.516.16.973.327 1.37.506.397.18.755.438 1.073.775.317.338.626.765.923 1.281.298.516.605 1.191.924 2.025l14.597 36.522c.556 1.43.962 2.404 1.221 2.92.258.515.566.775.924.775.277 0 .556-.309.834-.924.277-.615.834-1.817 1.668-3.605.675-1.468 1.668-3.753 2.979-6.852 1.31-3.098 2.88-6.83 4.707-11.2a878.389 878.389 0 0 1 2.234-5.363c.734-1.746 1.4-3.355 1.996-4.825.595-1.469 1.111-2.72 1.549-3.753.436-1.033.734-1.767.893-2.205.397-.993.755-1.827 1.073-2.503.317-.674.605-1.22.864-1.638.258-.417.496-.734.715-.953.218-.218.426-.387.625-.507.556-.357 1.122-.565 1.698-.625.575-.06.963-.09 1.162-.09.477 0 .715-.139.715-.417 0-.277-.338-.416-1.013-.416-.437 0-.904.01-1.4.03l-1.43.059c-.457.02-.855.04-1.191.06-.338.02-.547.03-.626.03-.357 0-1.123-.03-2.294-.09a69.742 69.742 0 0 0-3.545-.09c-.874 0-1.31.16-1.31.477 0 .238.217.358.655.358.317 0 .685.01 1.102.03.417.02.804.089 1.162.208.317.16.526.368.626.626.098.258.148.506.148.744 0 .279-.05.617-.148 1.013-.1.398-.23.814-.388 1.25-.238.716-.625 1.848-1.161 3.397a218.32 218.32 0 0 1-1.937 5.333 527.821 527.821 0 0 1-2.472 6.434c-.894 2.285-1.778 4.528-2.651 6.733a688.818 688.818 0 0 1-2.503 6.225c-.795 1.947-1.47 3.596-2.026 4.946L150.932 51.88a221.024 221.024 0 0 1-1.132-3.038c-.318-.873-.476-1.51-.476-1.907 0-.198.049-.407.148-.625.1-.218.308-.407.626-.566.278-.12.645-.199 1.102-.239.456-.039.844-.06 1.162-.06.397 0 .596-.139.596-.417 0-.277-.537-.416-1.609-.416-1.152 0-2.284.03-3.396.089a53.55 53.55 0 0 1-2.145.09c-.199 0-.536-.01-1.012-.03s-1.034-.04-1.669-.06c-.635-.02-1.33-.039-2.085-.06a83.8 83.8 0 0 0-2.204-.03c-1.033 0-1.55.14-1.55.417 0 .278.16.418.477.418zm53.323 0c.277 0 .625.01 1.042.03.417.02.745.069.983.149.993.198 1.648.556 1.966 1.071.318.517.516 1.292.596 2.325.04.476.07.982.09 1.519.02.536.03 1.261.03 2.174v19.662c0 2.859-.01 5.412-.03 7.655-.02 2.245-.11 4.002-.269 5.273-.118.874-.288 1.609-.506 2.204-.219.596-.625.953-1.221 1.073-.279.08-.576.14-.894.179-.318.04-.616.06-.893.06-.319 0-.477.119-.477.356 0 .318.317.477.953.477.437 0 .973-.02 1.609-.06.635-.039 1.251-.059 1.847-.059.634-.04 1.17-.06 1.608-.06h.775a68.038 68.038 0 0 1 4.647.179c1.152.04 2.551.079 4.2.12 1.648.039 3.605.06 5.869.06.596 0 1.072-.012 1.43-.03.357-.021.655-.08.894-.18.238-.099.416-.247.536-.447.119-.198.238-.496.357-.893.079-.318.159-.775.238-1.37.08-.596.159-1.202.239-1.818.079-.615.149-1.171.208-1.668.06-.496.09-.804.09-.924 0-.198-.01-.395-.03-.595-.02-.198-.13-.298-.328-.298-.238 0-.417.298-.536.893-.2 1.232-.497 2.176-.894 2.83-.397.656-.993 1.143-1.787 1.46-.795.32-1.748.507-2.86.567a55.473 55.473 0 0 1-2.86.088c-1.47 0-2.642-.058-3.515-.178-.874-.119-1.56-.357-2.055-.714-.497-.358-.835-.854-1.013-1.49-.179-.635-.289-1.47-.328-2.503v-15.43c0-.278.139-.418.417-.418.239 0 .745.01 1.52.03.774.02 1.608.04 2.502.06.894.02 1.767.05 2.621.089.854.04 1.48.08 1.877.12 1.152.118 1.926.387 2.323.803.397.418.656.845.775 1.281.12.398.188.746.209 1.043.019.298.03.606.03.923 0 .358.138.536.416.536.199 0 .318-.128.358-.386.04-.258.06-.507.06-.745 0-.12.009-.328.03-.625.019-.299.038-.636.059-1.014l.06-1.132c.02-.377.049-.724.089-1.043.079-.992.179-1.747.298-2.263.119-.516.178-.873.178-1.073 0-.317-.1-.476-.297-.476-.16 0-.458.258-.894.774a1.806 1.806 0 0 1-1.072.596c-.438.08-1.013.16-1.728.238-.358.04-1.013.07-1.966.09-.954.02-1.967.03-3.039.03h-4.468c-.239 0-.358-.198-.358-.596V47.53c0-.395.12-.595.358-.595h1.37c.794 0 1.648.01 2.562.03l2.621.06c.834.02 1.37.05 1.609.089 1.588.199 2.641.467 3.157.804.516.338.874.745 1.073 1.221.158.358.258.756.298 1.192.04.437.06.755.06.953 0 .517.158.775.476.775.12 0 .209-.069.268-.209.06-.138.11-.287.15-.446.038-.158.068-.427.089-.805.02-.376.049-.774.089-1.192.04-.416.069-.804.09-1.16.019-.359.03-.616.03-.775.078-.834.178-1.46.297-1.877.12-.418.179-.725.179-.924 0-.358-.08-.536-.238-.536a.74.74 0 0 0-.418.119c-.119.08-.258.14-.416.179-.558.119-1.411.218-2.562.298-.358 0-1.243.01-2.652.03-1.41.02-2.93.03-4.558.03h-6.434l-2.443-.12c-.676-.039-1.39-.06-2.145-.06h-2.144c-.636 0-.954.16-.954.477 0 .238.158.358.477.358zm38.487 0c.278 0 .626.01 1.043.03.417.02.745.069.983.149.992.198 1.648.556 1.966 1.071.317.517.516 1.292.596 2.325.039.476.068.982.09 1.519.019.536.029 1.261.029 2.174v19.662c0 2.859-.01 5.412-.03 7.655-.02 2.245-.11 4.002-.268 5.273-.119.874-.288 1.609-.507 2.204-.218.596-.625.953-1.221 1.073-.278.08-.576.14-.893.179-.319.04-.617.06-.894.06-.319 0-.477.119-.477.356 0 .318.317.477.954.477.436 0 .972-.01 1.608-.03l1.847-.06c.596-.02 1.31-.05 2.145-.089.079 0 .347.01.804.03.457.02 1.033.04 1.728.06.694.02 1.46.039 2.294.06.834.019 1.668.03 2.502.03.635 0 .953-.16.953-.478 0-.237-.159-.357-.476-.357-.279 0-.685-.02-1.222-.06a13.485 13.485 0 0 1-1.46-.178c-.913-.12-1.51-.477-1.787-1.073-.278-.595-.457-1.33-.536-2.204-.16-1.27-.249-3.028-.268-5.273-.02-2.243-.03-4.796-.03-7.655v-1.43c0-.318.139-.477.417-.477l7.328.12c.278 0 .537.118.775.356.278.398.665.924 1.162 1.579.496.656 1.032 1.38 1.608 2.175.576.794 1.182 1.629 1.818 2.502.635.874 1.27 1.728 1.906 2.562 1.707 2.264 3.158 4.121 4.35 5.57 1.191 1.451 2.422 2.513 3.693 3.188a7.48 7.48 0 0 0 2.503.894c.913.158 2.204.238 3.872.238h4.23c.556 0 .933-.03 1.132-.09.199-.059.298-.187.298-.387 0-.237-.179-.357-.536-.357-.2 0-.497-.01-.894-.03-.397-.02-.874-.068-1.43-.149-.754-.119-1.748-.436-2.978-.953-1.232-.516-2.662-1.628-4.29-3.336-1.748-1.867-3.634-4.09-5.66-6.673l-6.733-8.58c2.66-2.462 4.528-4.815 5.6-7.06 1.073-2.244 1.61-4.477 1.61-6.702 0-1.032-.15-1.986-.447-2.86a11.48 11.48 0 0 0-1.073-2.324 10.498 10.498 0 0 0-1.34-1.758 12.26 12.26 0 0 0-1.252-1.16c-1.589-1.152-3.327-1.878-5.213-2.176a36.499 36.499 0 0 0-5.69-.446c-.476 0-1.072.01-1.787.03l-2.175.059c-.735.02-1.39.04-1.966.06-.576.02-.943.03-1.102.03-.08 0-.348-.01-.804-.03-.457-.02-1.013-.04-1.669-.06-.655-.02-1.36-.039-2.114-.06-.755-.02-1.47-.03-2.145-.03-.636 0-.953.16-.953.477 0 .238.158.358.476.358zm9.473 2.144c0-.357.158-.595.477-.715.317-.078.834-.158 1.549-.237a22.3 22.3 0 0 1 2.442-.12c3.218 0 5.74 1.053 7.567 3.158 1.826 2.105 2.741 5.024 2.741 8.758 0 2.264-.348 4.18-1.043 5.749-.695 1.57-1.56 2.71-2.592 3.426a5.383 5.383 0 0 1-2.204.923c-.795.14-1.55.209-2.264.209-1.31 0-2.572-.09-3.783-.268-1.212-.18-2.036-.407-2.473-.685a.771.771 0 0 1-.417-.715V47.59zm37.893 41.289a14.726 14.726 0 0 0 3.872 1.25c1.35.24 2.72.359 4.11.359 1.63 0 3.218-.19 4.767-.567a12.082 12.082 0 0 0 4.23-1.936c1.033-.715 1.877-1.519 2.533-2.413a12.973 12.973 0 0 0 1.549-2.71 12.17 12.17 0 0 0 .774-2.622c.139-.834.209-1.55.209-2.145 0-1.192-.12-2.333-.358-3.426-.238-1.092-.685-2.184-1.34-3.277-.656-1.092-1.55-2.234-2.682-3.425-1.131-1.192-2.571-2.482-4.319-3.873l-1.668-1.311c-1.43-1.112-2.613-2.105-3.545-2.979-.934-.873-1.679-1.688-2.235-2.442-.556-.755-.943-1.5-1.161-2.235a8.205 8.205 0 0 1-.328-2.353c0-2.185.705-3.883 2.115-5.094 1.41-1.211 3.148-1.818 5.213-1.818 1.35 0 2.482.13 3.396.388.913.258 1.659.566 2.235.923.575.357 1.002.715 1.28 1.073.278.357.457.616.537.775.198.318.366.804.506 1.46.139.654.228 1.16.268 1.518.04.239.08.428.12.566.039.14.158.209.357.209.277 0 .417-.457.417-1.37 0-2.026.04-3.546.12-4.559.078-1.013.118-1.597.118-1.757 0-.278-.199-.417-.596-.417-.238 0-.506-.02-.804-.06-.298-.038-.725-.119-1.28-.238a17.295 17.295 0 0 0-2.473-.446 28.275 28.275 0 0 0-3.068-.15c-1.907 0-3.615.259-5.124.775-1.51.517-2.8 1.251-3.873 2.204a9.733 9.733 0 0 0-2.473 3.396c-.576 1.311-.864 2.762-.864 4.35 0 1.032.11 2.036.328 3.008.218.974.615 1.987 1.192 3.039.575 1.053 1.36 2.135 2.353 3.247.992 1.112 2.284 2.323 3.873 3.635l2.68 2.204a60.982 60.982 0 0 1 3.218 2.889c.873.855 1.58 1.689 2.115 2.502.536.815.924 1.65 1.162 2.503.238.854.358 1.798.358 2.83a8.1 8.1 0 0 1-.537 2.86 7.46 7.46 0 0 1-1.579 2.531c-.695.736-1.578 1.341-2.651 1.818-1.072.477-2.323.715-3.753.715-.994 0-1.966-.109-2.92-.328a9.303 9.303 0 0 1-2.65-1.042 6.615 6.615 0 0 1-2.056-1.877c-.557-.775-.954-1.717-1.192-2.83a9.45 9.45 0 0 1-.149-1.222 18.51 18.51 0 0 1-.03-.983c0-.436-.14-.655-.417-.655-.278 0-.437.318-.476.953-.04.477-.1 1.272-.179 2.383a55.522 55.522 0 0 0-.12 3.932c0 .796.04 1.321.12 1.58.08.258.337.486.775.685zm35.925-43.433c.199 0 .477.02.835.06.357.039.694.099 1.013.178 1.23.279 1.906 1.391 2.025 3.337.039.476.069.982.09 1.519.02.536.029 1.261.029 2.174v19.662c0 2.859-.01 5.412-.03 7.655-.02 2.245-.11 4.002-.268 5.273-.119.874-.288 1.609-.506 2.204-.219.596-.626.953-1.222 1.073-.278.08-.576.14-.893.179-.318.04-.616.06-.894.06-.318 0-.476.119-.476.356 0 .318.317.477.953.477.436 0 .972-.01 1.609-.03l1.846-.06c.596-.02 1.122-.039 1.58-.059.455-.02.723-.03.803-.03.08 0 .348.01.805.03.456.02 1.032.04 1.727.06.695.02 1.46.039 2.295.06.834.019 1.668.03 2.502.03.635 0 .953-.16.953-.478 0-.237-.16-.357-.476-.357-.279 0-.686-.02-1.222-.06a13.481 13.481 0 0 1-1.46-.178c-.914-.12-1.51-.477-1.787-1.073-.279-.595-.457-1.33-.536-2.204-.16-1.27-.249-3.028-.269-5.273-.02-2.243-.03-4.796-.03-7.655V52.714c0-.913.01-1.638.03-2.174.02-.537.05-1.043.09-1.52.079-1.032.268-1.817.566-2.353.298-.536.843-.883 1.639-1.042a7.36 7.36 0 0 1 .863-.15c.218-.02.427-.03.626-.03.317 0 .476-.119.476-.357 0-.317-.318-.476-.953-.476-.437 0-.974.01-1.608.03l-1.847.059c-.596.02-1.123.04-1.579.06-.457.02-.725.03-.805.03-.08 0-.348-.01-.804-.03-.457-.02-.983-.04-1.579-.06-.595-.02-1.231-.039-1.906-.06-.676-.02-1.251-.03-1.728-.03-.636 0-.953.16-.953.477 0 .238.158.358.476.358zM336.4 51.64c.239 0 .437-.198.596-.595.08-.198.188-.427.328-.685.138-.258.367-.645.685-1.162.238-.357.516-.656.834-.893.317-.239.715-.427 1.192-.567a10.852 10.852 0 0 1 1.698-.327c.655-.08 1.439-.12 2.353-.12l8.818-.119v25.203c0 2.859-.01 5.412-.03 7.655-.02 2.245-.11 4.002-.268 5.273-.12.874-.289 1.609-.507 2.204-.218.596-.625.953-1.22 1.073-.28.08-.577.14-.895.179-.318.04-.616.06-.893.06-.319 0-.477.119-.477.356 0 .318.318.477.953.477.437 0 .973-.01 1.609-.03l1.847-.06c.596-.02 1.121-.039 1.579-.059.456-.02.724-.03.804-.03.08 0 .347.01.804.03.457.02 1.033.04 1.728.06.695.02 1.46.039 2.294.06.834.019 1.668.03 2.502.03.635 0 .953-.16.953-.478 0-.237-.159-.357-.476-.357-.279 0-.685-.02-1.222-.06a13.471 13.471 0 0 1-1.459-.178c-.915-.12-1.51-.477-1.788-1.073-.278-.595-.457-1.33-.536-2.204-.159-1.27-.248-3.028-.268-5.273-.02-2.243-.03-4.796-.03-7.655V47.173l7.507.12c1.43.04 2.612.149 3.545.327.933.179 1.668.408 2.205.686.536.278.923.615 1.161 1.012.239.398.378.815.417 1.252l.06.655c.04.437.09.715.15.834s.168.179.327.179c.277 0 .417-.259.417-.775 0-.158.01-.507.03-1.043.02-.535.038-1.14.06-1.817.019-.675.038-1.35.059-2.025.02-.675.03-1.23.03-1.668 0-.2-.01-.367-.03-.507-.02-.139-.11-.209-.268-.209-.12 0-.319.03-.596.09-.278.06-.636.13-1.073.208-.476.08-1.063.15-1.757.209-.695.06-1.52.09-2.473.09h-22.342c-.357 0-1.012-.03-1.966-.09a93.798 93.798 0 0 1-2.74-.209c-.796-.078-1.381-.218-1.758-.416-.378-.2-.666-.299-.864-.299-.12 0-.229.14-.328.417-.1.278-.189.517-.268.716-.04.118-.13.476-.268 1.072-.14.596-.289 1.251-.447 1.966-.159.715-.298 1.38-.417 1.996s-.179 1.003-.179 1.161c0 .358.1.536.298.536zm57.375-11.618c.119 0 .417-.098.893-.297a40.772 40.772 0 0 1 4.17-1.43 53.249 53.249 0 0 1 2.533-.656 20.572 20.572 0 0 1 2.353-.416c.516-.08.924-.099 1.222-.06.297.04.485.06.566.06.119 0 .228-.05.327-.15.099-.098.07-.287-.09-.565a60.554 60.554 0 0 0-.833-1.52 32.908 32.908 0 0 0-.655-1.102c-.239-.357-.438-.536-.596-.536-.16 0-.348.05-.567.149-.218.1-.586.308-1.102.626-.119.08-.506.308-1.161.685a71.21 71.21 0 0 0-2.264 1.37c-.855.536-1.719 1.083-2.592 1.638a67.948 67.948 0 0 0-2.085 1.37c-.278.16-.417.32-.417.477 0 .24.098.357.298.357zm-9.95 5.423c.277 0 .625.01 1.042.03.417.02.745.069.984.149.992.198 1.647.556 1.966 1.071.317.517.516 1.292.596 2.325.038.476.068.982.089 1.519.02.536.03 1.261.03 2.174v19.662c0 2.859-.01 5.412-.03 7.655-.02 2.245-.11 4.002-.268 5.273-.12.874-.289 1.609-.507 2.204-.219.596-.625.953-1.221 1.073-.279.08-.576.14-.894.179-.318.04-.616.06-.893.06-.319 0-.477.119-.477.356 0 .318.317.477.953.477.437 0 .973-.02 1.609-.06.635-.039 1.251-.059 1.847-.059.635-.04 1.17-.06 1.608-.06h.775a68.036 68.036 0 0 1 4.647.179c1.152.04 2.552.079 4.2.12 1.648.039 3.605.06 5.869.06.596 0 1.073-.012 1.43-.03.357-.021.655-.08.894-.18.238-.099.416-.247.536-.447.119-.198.238-.496.357-.893.08-.318.159-.775.239-1.37l.238-1.818c.079-.615.149-1.171.209-1.668.06-.496.089-.804.089-.924 0-.198-.01-.395-.03-.595-.02-.198-.13-.298-.328-.298-.238 0-.417.298-.536.893-.199 1.232-.497 2.176-.894 2.83-.397.656-.993 1.143-1.787 1.46-.795.32-1.748.507-2.86.567a55.474 55.474 0 0 1-2.86.088c-1.47 0-2.641-.058-3.515-.178-.874-.119-1.56-.357-2.055-.714-.497-.358-.834-.854-1.013-1.49-.179-.635-.289-1.47-.328-2.503v-15.43c0-.278.139-.418.417-.418.239 0 .745.01 1.52.03.774.02 1.608.04 2.502.06.894.02 1.767.05 2.621.089.854.04 1.48.08 1.877.12 1.152.118 1.926.387 2.324.803.396.418.655.845.774 1.281.12.398.188.746.209 1.043.02.298.03.606.03.923 0 .358.138.536.417.536.198 0 .317-.128.357-.386.04-.258.06-.507.06-.745 0-.12.01-.328.03-.625.019-.299.038-.636.06-1.014.019-.376.038-.754.059-1.132.02-.377.049-.724.089-1.043.079-.992.179-1.747.298-2.263.119-.516.178-.873.178-1.073 0-.317-.099-.476-.297-.476-.16 0-.458.258-.894.774a1.806 1.806 0 0 1-1.072.596c-.438.08-1.013.16-1.728.238-.358.04-1.013.07-1.966.09-.953.02-1.967.03-3.039.03h-4.468c-.239 0-.358-.198-.358-.596V47.53c0-.395.12-.595.358-.595h1.37c.794 0 1.648.01 2.562.03l2.622.06c.834.02 1.37.05 1.608.089 1.588.199 2.641.467 3.158.804.516.338.873.745 1.072 1.221.158.358.258.756.298 1.192.04.437.06.755.06.953 0 .517.158.775.476.775.12 0 .209-.069.268-.209.06-.138.11-.287.15-.446.038-.158.068-.427.089-.805.02-.376.05-.774.089-1.192.04-.416.069-.804.09-1.16.019-.359.03-.616.03-.775.078-.834.178-1.46.297-1.877.12-.418.179-.725.179-.924 0-.358-.08-.536-.238-.536a.74.74 0 0 0-.418.119c-.119.08-.258.14-.416.179-.557.119-1.411.218-2.562.298-.358 0-1.242.01-2.652.03-1.41.02-2.93.03-4.558.03h-6.434l-2.443-.12a37.38 37.38 0 0 0-2.144-.06H384.3c-.636 0-.954.16-.954.477 0 .238.158.358.477.358zm59.995 0c.277 0 .625.01 1.042.03.417.02.745.069.983.149.993.198 1.648.556 1.966 1.071.318.517.516 1.292.596 2.325.04.476.07.982.09 1.519.02.536.03 1.261.03 2.174v19.662c0 2.859-.01 5.412-.03 7.655-.02 2.245-.11 4.002-.269 5.273-.118.874-.288 1.609-.506 2.204-.219.596-.625.953-1.221 1.073-.279.08-.576.14-.894.179-.318.04-.616.06-.893.06-.319 0-.477.119-.477.356 0 .318.317.477.953.477.437 0 .973-.02 1.609-.06.635-.039 1.251-.059 1.847-.059.634-.04 1.17-.06 1.608-.06h.775c.158 0 .694.04 1.609.12.913.078 2.025.158 3.336.238 1.27.079 2.651.158 4.14.238 1.49.08 2.87.12 4.141.12 2.542 0 4.786-.23 6.733-.686 1.945-.456 3.654-1.032 5.124-1.728 1.468-.694 2.71-1.44 3.723-2.233 1.013-.795 1.837-1.53 2.473-2.206a22.783 22.783 0 0 0 2.413-3.038 22.675 22.675 0 0 0 2.055-3.842 25.669 25.669 0 0 0 1.43-4.618 25.26 25.26 0 0 0 .536-5.302c0-1.788-.16-3.436-.476-4.945-.319-1.51-.745-2.89-1.281-4.14a18.722 18.722 0 0 0-1.847-3.367 23.396 23.396 0 0 0-2.175-2.681c-1.787-1.827-3.753-3.208-5.898-4.141a29.52 29.52 0 0 0-6.494-1.996c-2.185-.397-4.28-.605-6.286-.626-2.006-.02-3.744-.03-5.213-.03-.914 0-1.808.01-2.68.03-.875.021-1.68.04-2.414.06-.735.02-1.37.04-1.907.06-.536.02-.884.03-1.042.03-.08 0-.348-.01-.805-.03-.457-.02-1.012-.04-1.668-.06-.655-.02-1.36-.039-2.115-.06-.755-.02-1.47-.03-2.144-.03-.636 0-.954.16-.954.477 0 .238.158.358.477.358zm9.71 8.221c0-1.192.01-2.263.03-3.217.02-.953.03-1.688.03-2.204 0-.596.24-.993.716-1.192.119-.039.327-.09.625-.149.298-.06.645-.108 1.043-.149.396-.039.784-.069 1.162-.09a20.87 20.87 0 0 1 1.042-.028c1.788 0 3.545.07 5.273.207 1.728.14 3.405.448 5.034.924a21.768 21.768 0 0 1 4.767 2.056c1.549.894 3.018 2.076 4.408 3.544.596.636 1.231 1.42 1.907 2.354.675.934 1.3 2.026 1.877 3.277.575 1.25 1.043 2.65 1.4 4.2.357 1.55.536 3.277.536 5.183 0 1.391-.1 2.762-.298 4.111a22.878 22.878 0 0 1-.923 3.903 20.531 20.531 0 0 1-1.52 3.486c-.595 1.071-1.271 1.986-2.025 2.74-1.788 1.787-3.902 3.157-6.345 4.11-2.443.954-5.055 1.431-7.835 1.431-1.748 0-3.228-.07-4.439-.209-1.212-.139-2.204-.328-2.979-.565-.774-.239-1.37-.497-1.787-.776-.417-.277-.725-.555-.923-.834-.12-.158-.22-.416-.298-.774a9.187 9.187 0 0 1-.179-1.191l-.12-1.341c-.04-.456-.059-.864-.059-1.221 0-.278-.01-.814-.03-1.609-.02-.794-.04-1.767-.06-2.92-.02-1.151-.03-2.442-.03-3.872V53.667zm47.068-8.221c.278 0 .626.01 1.043.03.417.02.745.069.983.149.992.198 1.648.556 1.966 1.071.318.517.516 1.292.596 2.325.039.476.069.982.09 1.519.019.536.029 1.261.029 2.174v19.662c0 2.859-.01 5.412-.03 7.655-.02 2.245-.11 4.002-.268 5.273-.119.874-.288 1.609-.506 2.204-.22.596-.626.953-1.222 1.073-.278.08-.576.14-.893.179-.319.04-.616.06-.894.06-.318 0-.477.119-.477.356 0 .318.318.477.954.477.436 0 .972-.02 1.608-.06.635-.039 1.252-.059 1.847-.059.635-.04 1.171-.06 1.609-.06h.774a68.037 68.037 0 0 1 4.647.179c1.152.04 2.552.079 4.2.12 1.649.039 3.606.06 5.87.06.595 0 1.072-.012 1.43-.03.357-.021.655-.08.893-.18.238-.099.417-.247.536-.447.12-.198.239-.496.358-.893.079-.318.158-.775.238-1.37.08-.596.158-1.202.238-1.818.08-.615.15-1.171.209-1.668.06-.496.089-.804.089-.924 0-.198-.01-.395-.03-.595-.02-.198-.129-.298-.327-.298-.239 0-.417.298-.536.893-.2 1.232-.498 2.176-.894 2.83-.398.656-.994 1.143-1.788 1.46-.794.32-1.748.507-2.86.567a55.473 55.473 0 0 1-2.859.088c-1.47 0-2.642-.058-3.515-.178-.874-.119-1.56-.357-2.056-.714-.497-.358-.834-.854-1.012-1.49-.18-.635-.29-1.47-.328-2.503v-15.43c0-.278.138-.418.417-.418.238 0 .745.01 1.52.03.774.02 1.608.04 2.501.06.894.02 1.767.05 2.622.089.854.04 1.479.08 1.877.12 1.151.118 1.926.387 2.323.803.397.418.656.845.775 1.281.119.398.188.746.208 1.043.02.298.03.606.03.923 0 .358.139.536.417.536.198 0 .317-.128.358-.386.039-.258.06-.507.06-.745 0-.12.009-.328.029-.625.02-.299.039-.636.06-1.014.019-.376.038-.754.06-1.132.019-.377.049-.724.088-1.043.08-.992.18-1.747.299-2.263.118-.516.178-.873.178-1.073 0-.317-.1-.476-.298-.476-.159 0-.457.258-.894.774a1.806 1.806 0 0 1-1.072.596c-.438.08-1.013.16-1.728.238-.357.04-1.013.07-1.966.09-.953.02-1.966.03-3.038.03h-4.469c-.238 0-.357-.198-.357-.596V47.53c0-.395.119-.595.357-.595h1.37c.795 0 1.648.01 2.562.03l2.622.06c.834.02 1.37.05 1.609.089 1.588.199 2.64.467 3.157.804.516.338.873.745 1.073 1.221.158.358.257.756.298 1.192.039.437.06.755.06.953 0 .517.157.775.476.775.12 0 .208-.069.268-.209.06-.138.109-.287.149-.446.039-.158.069-.427.09-.805.019-.376.049-.774.088-1.192.04-.416.07-.804.09-1.16.02-.359.03-.616.03-.775.079-.834.179-1.46.297-1.877.12-.418.18-.725.18-.924 0-.358-.08-.536-.239-.536a.74.74 0 0 0-.417.119c-.12.08-.259.14-.417.179-.557.119-1.41.218-2.562.298-.357 0-1.242.01-2.651.03-1.41.02-2.93.03-4.558.03h-6.435l-2.442-.12c-.676-.039-1.391-.06-2.145-.06h-2.145c-.636 0-.953.16-.953.477 0 .238.158.358.476.358zM64.441 109.373c-.607 0-1.254.014-1.942.041l-1.982.083c-.634.029-1.185.056-1.653.083-.468.028-.757.04-.867.04-.496 0-1.557-.04-3.18-.123a97.26 97.26 0 0 0-4.917-.124c-1.212 0-1.817.22-1.817.661 0 .33.302.496.908.496.44 0 .95.014 1.53.041a5.984 5.984 0 0 1 1.61.29c.44.22.73.51.867.867.137.359.207.702.207 1.032 0 .387-.07.855-.207 1.405a17.935 17.935 0 0 1-.536 1.734c-.331.992-.868 2.561-1.612 4.71a300.934 300.934 0 0 1-2.684 7.394 738.936 738.936 0 0 1-3.43 8.923c-1.239 3.167-2.465 6.278-3.676 9.336a927.75 927.75 0 0 1-3.47 8.633c-1.102 2.699-2.038 4.985-2.809 6.857l-15.862-42.3a307.128 307.128 0 0 1-1.57-4.213c-.44-1.211-.66-2.092-.66-2.644 0-.275.068-.564.206-.867.137-.303.426-.565.868-.785.384-.166.894-.275 1.528-.331.633-.054 1.17-.082 1.611-.082.55 0 .826-.193.826-.579 0-.385-.743-.578-2.23-.578a88.38 88.38 0 0 0-4.71.124c-1.542.083-2.533.124-2.974.124-.276 0-.743-.013-1.404-.041-.661-.027-1.433-.054-2.313-.083a742.64 742.64 0 0 0-2.892-.083 118.175 118.175 0 0 0-3.057-.041c-1.431 0-2.148.193-2.148.578 0 .386.221.579.661.579.276 0 .716.014 1.322.041.605.028 1.21.124 1.817.29.716.22 1.35.454 1.9.702.55.247 1.046.606 1.488 1.073.44.47.867 1.061 1.28 1.777.414.716.84 1.652 1.28 2.808l20.242 50.644c.77 1.983 1.335 3.333 1.693 4.049.358.715.785 1.074 1.281 1.074.385 0 .77-.428 1.157-1.281.384-.853 1.156-2.52 2.313-4.998.936-2.037 2.313-5.205 4.13-9.5 1.818-4.297 3.994-9.473 6.527-15.533 1.046-2.533 2.079-5.012 3.098-7.435a575.805 575.805 0 0 0 2.768-6.692 385.156 385.156 0 0 1 2.148-5.205c.605-1.432 1.019-2.45 1.24-3.057a64.316 64.316 0 0 1 1.486-3.47c.44-.936.84-1.693 1.198-2.272.358-.578.688-1.018.992-1.322.302-.302.591-.537.867-.702.771-.495 1.556-.784 2.355-.868.798-.082 1.334-.123 1.611-.123.66 0 .991-.193.991-.579 0-.385-.468-.578-1.404-.578zm40.316 62.706c.826 0 1.487-.014 1.982-.041.496-.03.909-.111 1.24-.248a1.51 1.51 0 0 0 .743-.62c.165-.275.33-.688.496-1.239.11-.44.22-1.074.33-1.9.11-.826.22-1.666.33-2.52.11-.854.207-1.624.29-2.313.083-.689.124-1.115.124-1.28 0-.275-.014-.551-.041-.827-.029-.275-.18-.414-.455-.414-.33 0-.578.414-.743 1.24-.277 1.708-.69 3.016-1.24 3.924-.55.91-1.377 1.584-2.478 2.024-1.103.442-2.424.703-3.965.786a76.162 76.162 0 0 1-3.966.123c-2.039 0-3.664-.083-4.875-.248-1.212-.165-2.162-.495-2.85-.991-.69-.496-1.156-1.184-1.404-2.065-.248-.88-.4-2.037-.455-3.47v-21.398c0-.384.193-.579.578-.579.331 0 1.033.015 2.107.042 1.074.028 2.231.055 3.47.082 1.24.03 2.45.07 3.635.125 1.184.055 2.052.11 2.603.164 1.597.166 2.67.538 3.222 1.117.55.577.909 1.17 1.074 1.775.165.552.26 1.033.289 1.446.027.413.041.84.041 1.28 0 .497.193.744.579.744.274 0 .44-.178.495-.536.055-.358.083-.703.083-1.033 0-.166.013-.455.041-.868.027-.413.054-.88.083-1.404.027-.523.054-1.046.083-1.57.027-.523.068-1.005.123-1.446.11-1.376.248-2.423.413-3.14.166-.715.248-1.21.248-1.487 0-.44-.138-.66-.413-.66-.22 0-.634.358-1.239 1.073a2.507 2.507 0 0 1-1.487.827c-.607.11-1.405.22-2.396.33-.496.056-1.405.097-2.726.124-1.322.029-2.727.041-4.214.041h-6.196c-.33 0-.496-.274-.496-.826v-22.802c0-.55.165-.826.496-.826h1.9c1.101 0 2.285.014 3.553.041 1.266.03 2.478.056 3.635.083 1.156.028 1.9.07 2.23.124 2.203.277 3.663.648 4.379 1.115.715.47 1.21 1.033 1.487 1.694.22.496.358 1.047.413 1.653.055.606.083 1.046.083 1.32 0 .717.22 1.075.66 1.075.166 0 .29-.095.372-.289.083-.192.151-.4.207-.62.054-.22.096-.59.124-1.115.027-.523.068-1.074.124-1.652a45.01 45.01 0 0 0 .124-1.611c.027-.496.041-.853.041-1.075.11-1.156.248-2.023.413-2.601.165-.579.248-1.005.248-1.281 0-.496-.11-.744-.33-.744-.221 0-.413.055-.579.166s-.358.193-.578.247c-.772.166-1.956.304-3.552.413-.496 0-1.722.015-3.677.042-1.956.028-4.062.04-6.32.04H84.35l-3.387-.164a51.546 51.546 0 0 0-2.974-.083h-2.974c-.882 0-1.322.22-1.322.661 0 .33.22.496.66.496.386 0 .868.014 1.447.041.578.028 1.032.097 1.363.206 1.376.277 2.285.773 2.726 1.488.44.716.715 1.79.826 3.221.054.662.096 1.364.124 2.108.027.743.042 1.748.042 3.015v27.263c0 3.965-.015 7.505-.042 10.617-.028 3.112-.152 5.55-.371 7.311-.166 1.212-.4 2.23-.703 3.057-.303.826-.867 1.322-1.694 1.487a8.015 8.015 0 0 1-1.239.248c-.441.055-.854.082-1.239.082-.441 0-.661.165-.661.496 0 .44.44.66 1.322.66.606 0 1.349-.027 2.23-.081a40.36 40.36 0 0 1 2.562-.084 36.6 36.6 0 0 1 2.23-.082h1.074a94.088 94.088 0 0 1 6.444.248c1.597.054 3.539.11 5.825.165 2.285.054 4.998.083 8.138.083zm84.102-.372c.275-.082.413-.26.413-.537 0-.33-.248-.496-.743-.496-.277 0-.69-.013-1.24-.04a21.65 21.65 0 0 1-1.983-.208c-1.046-.165-2.424-.605-4.13-1.322-1.708-.714-3.691-2.257-5.948-4.626-2.425-2.588-5.04-5.672-7.849-9.253l-9.336-11.897c3.69-3.414 6.28-6.677 7.766-9.79 1.487-3.11 2.231-6.209 2.231-9.294 0-1.431-.207-2.753-.62-3.965-.413-1.211-.909-2.286-1.487-3.223a14.602 14.602 0 0 0-1.859-2.437c-.66-.688-1.239-1.225-1.735-1.61-2.203-1.597-4.613-2.603-7.229-3.016a50.53 50.53 0 0 0-7.89-.62c-.66 0-1.487.014-2.478.041-.991.028-1.997.056-3.016.083-1.02.029-1.928.056-2.726.083-.799.028-1.309.04-1.528.04-.111 0-.483-.012-1.115-.04-.634-.027-1.405-.054-2.314-.083-.909-.027-1.887-.055-2.933-.083a115.293 115.293 0 0 0-2.974-.041c-.881 0-1.322.22-1.322.661 0 .33.22.496.661.496.385 0 .868.014 1.446.041.578.028 1.033.097 1.363.206 1.376.277 2.285.773 2.727 1.488.44.716.714 1.79.826 3.221.054.662.095 1.364.123 2.108.027.743.042 1.748.042 3.015v27.263c0 3.965-.015 7.505-.042 10.617-.028 3.112-.152 5.55-.371 7.311-.165 1.212-.4 2.23-.703 3.057-.303.826-.867 1.322-1.693 1.487a8.015 8.015 0 0 1-1.24.248c-.44.055-.854.082-1.239.082-.441 0-.66.165-.66.496 0 .44.44.66 1.321.66.606 0 1.35-.013 2.23-.04l2.562-.083c.826-.028 1.818-.07 2.974-.124.11 0 .482.013 1.116.042.632.027 1.431.054 2.396.082.963.027 2.023.054 3.18.083 1.157.027 2.314.04 3.47.04.88 0 1.322-.22 1.322-.66 0-.33-.22-.496-.661-.496-.386 0-.95-.027-1.694-.082a18.884 18.884 0 0 1-2.024-.248c-1.267-.165-2.094-.661-2.478-1.487-.386-.826-.634-1.845-.744-3.057-.22-1.762-.344-4.199-.371-7.311-.029-3.112-.042-6.652-.042-10.617v-1.983c0-.44.193-.66.578-.66l10.163.165c.384 0 .743.165 1.073.495.385.552.922 1.28 1.611 2.19a182.61 182.61 0 0 1 2.231 3.016c.798 1.102 1.638 2.258 2.52 3.469a188.42 188.42 0 0 0 2.643 3.552c2.368 3.14 4.38 5.715 6.032 7.725 1.652 2.012 3.358 3.485 5.122 4.42a10.37 10.37 0 0 0 3.47 1.24c1.266.219 3.056.33 5.37.33h5.866c.77 0 1.293-.04 1.57-.124zm-32.799-30.444a7.487 7.487 0 0 1-3.057 1.28 18.18 18.18 0 0 1-3.139.29c-1.817 0-3.566-.125-5.246-.372-1.68-.248-2.823-.564-3.429-.95-.385-.22-.578-.55-.578-.991v-27.016c0-.496.22-.826.661-.992.44-.109 1.157-.22 2.148-.33.992-.11 2.12-.165 3.387-.165 4.462 0 7.959 1.46 10.493 4.379 2.532 2.92 3.8 6.968 3.8 12.144 0 3.14-.483 5.797-1.446 7.973-.964 2.176-2.162 3.759-3.594 4.75zm63.904 24.909c.91-1.24 1.624-2.492 2.148-3.76.523-1.266.88-2.477 1.074-3.634.193-1.157.29-2.148.29-2.974 0-1.653-.166-3.235-.496-4.75-.33-1.516-.95-3.03-1.86-4.545-.908-1.514-2.147-3.098-3.717-4.75-1.57-1.652-3.567-3.442-5.99-5.37l-2.313-1.818c-1.982-1.541-3.622-2.918-4.915-4.131-1.295-1.21-2.328-2.34-3.099-3.387-.771-1.046-1.309-2.079-1.61-3.098a11.369 11.369 0 0 1-.455-3.263c0-3.029.977-5.384 2.933-7.065 1.954-1.679 4.364-2.519 7.229-2.519 1.871 0 3.441.18 4.71.537 1.265.359 2.298.785 3.097 1.28.798.496 1.39.992 1.776 1.488.385.495.633.854.744 1.073.275.442.509 1.116.702 2.025.193.909.316 1.61.372 2.106.054.33.11.593.165.785.055.194.22.29.496.29.384 0 .578-.633.578-1.9 0-2.81.054-4.916.165-6.321.11-1.405.166-2.216.166-2.437 0-.385-.277-.578-.827-.578-.33 0-.702-.027-1.115-.083a24.28 24.28 0 0 1-1.776-.33 24.016 24.016 0 0 0-3.429-.62c-1.24-.137-2.658-.207-4.254-.207-2.644 0-5.013.359-7.106 1.075-2.094.716-3.882 1.735-5.37 3.056a13.477 13.477 0 0 0-3.428 4.71c-.8 1.817-1.198 3.828-1.198 6.03 0 1.434.151 2.823.454 4.173.303 1.35.854 2.754 1.653 4.213.798 1.46 1.886 2.961 3.263 4.503 1.376 1.542 3.166 3.221 5.37 5.039l3.718 3.057c1.762 1.487 3.25 2.823 4.461 4.007 1.21 1.185 2.19 2.341 2.933 3.47.744 1.129 1.28 2.286 1.611 3.47.33 1.184.496 2.492.496 3.924 0 1.321-.248 2.644-.744 3.966a10.347 10.347 0 0 1-2.19 3.51c-.963 1.02-2.189 1.86-3.676 2.52-1.487.661-3.222.992-5.205.992-1.377 0-2.726-.152-4.048-.454a12.924 12.924 0 0 1-3.676-1.446 9.167 9.167 0 0 1-2.85-2.603c-.772-1.073-1.322-2.381-1.653-3.924-.11-.605-.179-1.17-.206-1.693a25.432 25.432 0 0 1-.042-1.364c0-.605-.193-.909-.578-.909-.386 0-.606.442-.66 1.322-.056.662-.139 1.763-.249 3.305-.11 1.542-.165 3.36-.165 5.453 0 1.102.054 1.832.165 2.189.11.36.468.675 1.074.95a20.417 20.417 0 0 0 5.37 1.735c1.872.33 3.772.496 5.701.496 2.258 0 4.461-.263 6.61-.785a16.746 16.746 0 0 0 5.865-2.686c1.432-.991 2.602-2.106 3.511-3.345zm73.239 4.502c-.442 0-.95-.027-1.528-.082a7.141 7.141 0 0 1-1.777-.413 6.502 6.502 0 0 1-1.445-.579c-.524-.274-1.074-.743-1.653-1.404-.578-.661-1.212-1.57-1.9-2.726-.69-1.157-1.391-2.645-2.107-4.462l-3.098-7.848c-1.239-3.14-2.534-6.457-3.883-9.956-1.35-3.497-2.713-7.035-4.09-10.616-1.377-3.58-2.63-6.87-3.758-9.872a2051.81 2051.81 0 0 0-2.892-7.643c-.799-2.092-1.309-3.387-1.528-3.883-.496-1.266-.855-2.077-1.074-2.437-.22-.357-.469-.537-.744-.537-.276 0-.524.194-.743.579-.221.385-.579 1.267-1.074 2.644l-18.754 51.304c-.772 2.094-1.64 3.842-2.603 5.246-.964 1.405-2.41 2.245-4.337 2.52-.33.056-.744.097-1.24.124-.495.028-.88.041-1.156.041-.496 0-.744.165-.744.496 0 .44.524.66 1.57.66.991 0 1.983-.013 2.975-.04l2.808-.083c.88-.028 1.639-.055 2.272-.082.633-.03 1.06-.042 1.28-.042.22 0 .592.013 1.116.042.523.027 1.087.054 1.694.082l1.9.083a43 43 0 0 0 1.735.04c.826 0 1.24-.22 1.24-.66 0-.33-.277-.496-.827-.496h-.826c-.717 0-1.419-.192-2.107-.578-.69-.384-1.033-.992-1.033-1.818 0-1.54.385-3.387 1.157-5.535l4.957-14.623c.165-.44.44-.66.826-.66h17.762c.331 0 .579.164.744.495l7.683 20.323c.276.662.331 1.172.166 1.529-.166.36-.386.592-.661.703-.386.11-.579.302-.579.577 0 .277.22.427.661.455.44.029 1.046.068 1.818.123 1.432.055 2.85.096 4.255.125 1.404.027 2.685.04 3.841.04h4.875c.44 0 .826-.04 1.157-.123.33-.082.495-.26.495-.537 0-.33-.276-.496-.826-.496zM268.5 144.485h-15.78c-.33 0-.413-.192-.248-.578l7.27-22.307c.385-1.21.798-1.21 1.24 0l7.848 22.307c.11.386 0 .578-.33.578zm50.23 27.305c1.157.027 2.314.04 3.47.04.88 0 1.322-.22 1.322-.66 0-.33-.22-.496-.66-.496-.387 0-.95-.027-1.694-.082a18.874 18.874 0 0 1-2.024-.248c-1.268-.165-2.094-.661-2.479-1.487-.386-.826-.634-1.845-.743-3.057-.221-1.762-.345-4.199-.372-7.311-.029-3.112-.042-6.652-.042-10.617V120.61c0-1.267.013-2.272.042-3.015a44.65 44.65 0 0 1 .124-2.108c.11-1.431.371-2.52.784-3.263s1.17-1.224 2.272-1.446c.496-.11.895-.178 1.199-.206a9.72 9.72 0 0 1 .867-.041c.44 0 .66-.166.66-.496 0-.44-.44-.661-1.32-.661-.608 0-1.351.014-2.232.041l-2.56.083c-.827.029-1.558.056-2.19.083-.634.028-1.006.04-1.115.04-.112 0-.483-.012-1.116-.04-.634-.027-1.363-.054-2.19-.083-.825-.027-1.707-.055-2.643-.083a85.154 85.154 0 0 0-2.396-.041c-.881 0-1.321.22-1.321.661 0 .33.219.496.66.496.275 0 .661.028 1.157.082.496.056.963.138 1.405.248 1.706.386 2.643 1.929 2.808 4.626.055.662.096 1.364.124 2.108.027.743.042 1.748.042 3.015v27.263c0 3.965-.015 7.505-.042 10.617-.028 3.112-.152 5.55-.371 7.311-.166 1.212-.4 2.23-.703 3.057-.303.826-.867 1.322-1.693 1.487a8.015 8.015 0 0 1-1.24.248c-.44.055-.854.082-1.239.082-.441 0-.66.165-.66.496 0 .44.44.66 1.321.66.606 0 1.35-.013 2.23-.04l2.562-.083c.826-.028 1.555-.055 2.19-.082a38.45 38.45 0 0 1 1.115-.042c.11 0 .481.013 1.115.042.632.027 1.432.054 2.396.082.963.027 2.024.054 3.18.083zm60.474-11.442c-.386 0-.633.358-.743 1.073-.111.772-.36 1.626-.744 2.561-.386.937-.854 1.735-1.404 2.396-.992 1.213-2.355 1.93-4.09 2.148-1.735.221-3.705.33-5.907.33-1.598 0-2.961-.04-4.09-.123-1.129-.082-2.065-.193-2.808-.33-.744-.137-1.35-.33-1.818-.58a4.935 4.935 0 0 1-1.198-.867c-.772-.715-1.267-2.532-1.487-5.452-.22-2.919-.33-7.407-.33-13.467V120.61c0-1.267.013-2.272.041-3.015a44.65 44.65 0 0 1 .124-2.108c.11-1.431.372-2.52.785-3.263s1.225-1.224 2.437-1.446a9.41 9.41 0 0 1 1.528-.206 25.2 25.2 0 0 1 1.198-.041c.44 0 .661-.166.661-.496 0-.44-.442-.661-1.322-.661-.607 0-1.391.014-2.354.041l-2.85.083c-.938.029-1.764.056-2.479.083-.717.028-1.13.04-1.24.04-.11 0-.482-.012-1.114-.04a219.69 219.69 0 0 0-2.314-.083 975.51 975.51 0 0 0-2.933-.083 115.292 115.292 0 0 0-2.974-.041c-.881 0-1.322.22-1.322.661 0 .33.22.496.661.496.385 0 .868.014 1.446.041.578.028 1.033.097 1.363.206 1.376.277 2.285.773 2.727 1.488.44.716.714 1.79.826 3.221.054.662.095 1.364.123 2.108.028.743.042 1.748.042 3.015v27.263c0 3.965-.014 7.505-.042 10.617-.028 3.112-.152 5.55-.371 7.311-.165 1.212-.4 2.23-.703 3.057-.303.826-.867 1.322-1.693 1.487a8.016 8.016 0 0 1-1.24.248c-.44.055-.854.082-1.239.082-.441 0-.66.165-.66.496 0 .44.44.66 1.321.66.606 0 1.335-.013 2.19-.04.853-.029 1.693-.07 2.52-.125.826 0 1.555-.013 2.189-.04a34.504 34.504 0 0 1 1.198-.042c1.21 0 2.478.013 3.8.042 1.322.027 2.863.095 4.627.206 1.762.054 3.745.11 5.948.165 2.202.054 4.792.083 7.766.083 1.101 0 1.968-.029 2.602-.083.633-.055 1.116-.165 1.446-.33.33-.165.564-.385.702-.661.137-.275.29-.66.455-1.157.165-.605.316-1.335.454-2.189.137-.854.275-1.694.413-2.52.137-.826.234-1.57.29-2.23.053-.662.082-1.102.082-1.322 0-.826-.165-1.24-.496-1.24zm45.687 11.731c1.101 0 1.968-.029 2.602-.083.633-.055 1.116-.165 1.446-.33.33-.165.564-.385.702-.661.137-.275.29-.66.455-1.157.165-.605.316-1.335.454-2.189.137-.854.275-1.694.413-2.52.137-.826.234-1.57.289-2.23.054-.662.083-1.102.083-1.322 0-.826-.165-1.24-.496-1.24-.386 0-.634.36-.743 1.074-.111.772-.36 1.626-.744 2.561-.386.937-.854 1.735-1.404 2.396-.992 1.213-2.355 1.93-4.09 2.148-1.735.221-3.705.33-5.907.33-1.598 0-2.961-.04-4.09-.123-1.129-.082-2.065-.193-2.808-.33-.744-.137-1.351-.33-1.818-.58a4.936 4.936 0 0 1-1.198-.867c-.772-.715-1.267-2.532-1.487-5.452-.221-2.919-.33-7.407-.33-13.467V120.61c0-1.267.012-2.272.04-3.015.028-.744.069-1.446.125-2.108.11-1.431.371-2.52.784-3.263s1.225-1.224 2.438-1.446a9.41 9.41 0 0 1 1.528-.206 25.2 25.2 0 0 1 1.198-.041c.44 0 .661-.166.661-.496 0-.44-.442-.661-1.322-.661-.607 0-1.392.014-2.354.041l-2.85.083c-.938.029-1.764.056-2.48.083-.716.028-1.129.04-1.239.04-.11 0-.482-.012-1.115-.04-.634-.027-1.404-.054-2.313-.083-.909-.027-1.888-.055-2.933-.083a115.292 115.292 0 0 0-2.974-.041c-.882 0-1.322.22-1.322.661 0 .33.22.496.66.496.386 0 .868.014 1.447.041.578.028 1.033.097 1.363.206 1.376.277 2.285.773 2.726 1.488.44.716.715 1.79.826 3.221.055.662.096 1.364.124 2.108.027.743.042 1.748.042 3.015v27.263c0 3.965-.015 7.505-.042 10.617-.028 3.112-.152 5.55-.371 7.311-.166 1.212-.4 2.23-.703 3.057-.303.826-.867 1.322-1.693 1.487a8.016 8.016 0 0 1-1.24.248c-.44.055-.854.082-1.239.082-.441 0-.66.165-.66.496 0 .44.44.66 1.321.66.606 0 1.335-.013 2.19-.04.853-.029 1.693-.07 2.52-.125.825 0 1.555-.013 2.189-.04a34.504 34.504 0 0 1 1.197-.042c1.211 0 2.479.013 3.801.042 1.322.027 2.863.095 4.626.206 1.763.054 3.745.11 5.949.165 2.202.054 4.791.083 7.766.083zm53.122-.289a1.51 1.51 0 0 0 .743-.62c.165-.275.33-.688.496-1.239.11-.44.22-1.074.33-1.9.11-.826.22-1.666.33-2.52.11-.854.207-1.624.29-2.313.083-.689.124-1.115.124-1.28 0-.275-.014-.551-.041-.827-.029-.275-.18-.414-.455-.414-.33 0-.578.414-.743 1.24-.277 1.708-.69 3.016-1.24 3.924-.55.91-1.377 1.584-2.478 2.024-1.103.442-2.424.703-3.965.786a76.162 76.162 0 0 1-3.966.123c-2.039 0-3.664-.083-4.875-.248-1.212-.165-2.162-.495-2.85-.991-.69-.496-1.156-1.184-1.404-2.065-.248-.88-.4-2.037-.455-3.47v-21.398c0-.384.192-.579.578-.579.331 0 1.033.015 2.107.042 1.074.028 2.231.055 3.47.082 1.24.03 2.45.07 3.635.125 1.184.055 2.052.11 2.603.164 1.597.166 2.67.538 3.222 1.117.55.577.909 1.17 1.073 1.775.166.552.262 1.033.29 1.446.027.413.041.84.041 1.28 0 .497.193.744.579.744.274 0 .44-.178.495-.536.055-.358.083-.703.083-1.033 0-.166.013-.455.041-.868.027-.413.054-.88.083-1.404l.082-1.57a19.83 19.83 0 0 1 .124-1.446c.11-1.376.248-2.423.413-3.14.166-.715.248-1.21.248-1.487 0-.44-.138-.66-.413-.66-.22 0-.634.358-1.24 1.073a2.507 2.507 0 0 1-1.486.827c-.607.11-1.405.22-2.396.33-.496.056-1.405.097-2.726.124-1.322.029-2.727.041-4.214.041h-6.196c-.33 0-.496-.274-.496-.826v-22.802c0-.55.165-.826.496-.826h1.9c1.101 0 2.285.014 3.553.041 1.266.03 2.478.056 3.635.083 1.156.028 1.9.07 2.23.124 2.203.277 3.663.648 4.379 1.115.715.47 1.21 1.033 1.487 1.694.22.496.358 1.047.413 1.653.055.606.083 1.046.083 1.32 0 .717.22 1.075.66 1.075.166 0 .29-.095.372-.289.083-.192.151-.4.207-.62.054-.22.096-.59.124-1.115.027-.523.068-1.074.124-1.652.054-.578.095-1.116.124-1.611.027-.496.04-.853.04-1.075.11-1.156.249-2.023.414-2.601.165-.579.248-1.005.248-1.281 0-.496-.11-.744-.33-.744-.221 0-.413.055-.579.166-.165.11-.358.193-.578.247-.772.166-1.956.304-3.552.413-.496 0-1.722.015-3.677.042-1.956.028-4.062.04-6.32.04h-8.923l-3.387-.164a51.545 51.545 0 0 0-2.974-.083h-2.974c-.882 0-1.322.22-1.322.661 0 .33.22.496.66.496.386 0 .868.014 1.447.041.578.028 1.032.097 1.363.206 1.376.277 2.285.773 2.726 1.488.44.716.715 1.79.826 3.221.054.662.096 1.364.124 2.108.027.743.042 1.748.042 3.015v27.263c0 3.965-.015 7.505-.042 10.617-.028 3.112-.152 5.55-.371 7.311-.166 1.212-.4 2.23-.703 3.057-.303.826-.867 1.322-1.694 1.487a8.015 8.015 0 0 1-1.239.248c-.441.055-.854.082-1.239.082-.441 0-.661.165-.661.496 0 .44.44.66 1.322.66.606 0 1.349-.027 2.23-.081a40.36 40.36 0 0 1 2.561-.084 36.6 36.6 0 0 1 2.231-.082h1.074a94.088 94.088 0 0 1 6.444.248c1.597.054 3.539.11 5.825.165 2.285.054 4.998.083 8.138.083.826 0 1.487-.014 1.982-.041.496-.03.909-.111 1.24-.248zm44.281-2.273c1.432-.991 2.602-2.106 3.511-3.345.91-1.24 1.624-2.492 2.148-3.76.523-1.266.88-2.477 1.074-3.634.193-1.157.29-2.148.29-2.974 0-1.653-.166-3.235-.496-4.75-.33-1.516-.95-3.03-1.86-4.545-.908-1.514-2.147-3.098-3.717-4.75-1.57-1.652-3.567-3.442-5.99-5.37l-2.313-1.818c-1.982-1.541-3.622-2.918-4.915-4.131-1.295-1.21-2.328-2.34-3.099-3.387-.772-1.046-1.309-2.079-1.61-3.098a11.37 11.37 0 0 1-.455-3.263c0-3.029.977-5.384 2.933-7.065 1.954-1.679 4.364-2.519 7.229-2.519 1.871 0 3.441.18 4.71.537 1.265.359 2.298.785 3.097 1.28.798.496 1.39.992 1.776 1.488.385.495.633.854.744 1.073.275.442.509 1.116.702 2.025.193.909.316 1.61.372 2.106.054.33.11.593.165.785.055.194.22.29.496.29.384 0 .578-.633.578-1.9 0-2.81.054-4.916.165-6.321.11-1.405.166-2.216.166-2.437 0-.385-.277-.578-.827-.578-.33 0-.702-.027-1.115-.083a24.278 24.278 0 0 1-1.776-.33 24.016 24.016 0 0 0-3.429-.62c-1.24-.137-2.658-.207-4.254-.207-2.644 0-5.013.359-7.106 1.075-2.094.716-3.882 1.735-5.37 3.056a13.477 13.477 0 0 0-3.428 4.71c-.8 1.817-1.198 3.828-1.198 6.03 0 1.434.151 2.823.454 4.173.303 1.35.854 2.754 1.653 4.213.798 1.46 1.886 2.961 3.263 4.503 1.376 1.542 3.166 3.221 5.37 5.039l3.718 3.057c1.762 1.487 3.25 2.823 4.46 4.007 1.212 1.185 2.19 2.341 2.934 3.47.744 1.129 1.28 2.286 1.611 3.47.33 1.184.496 2.492.496 3.924 0 1.321-.248 2.644-.744 3.966a10.348 10.348 0 0 1-2.19 3.51c-.963 1.02-2.189 1.86-3.676 2.52-1.487.661-3.222.992-5.205.992-1.377 0-2.726-.152-4.048-.454a12.924 12.924 0 0 1-3.676-1.446 9.167 9.167 0 0 1-2.85-2.603c-.772-1.073-1.322-2.381-1.653-3.924-.11-.605-.179-1.17-.206-1.693a25.416 25.416 0 0 1-.042-1.364c0-.605-.193-.909-.578-.909-.386 0-.606.442-.66 1.322-.056.662-.139 1.763-.249 3.305-.11 1.542-.165 3.36-.165 5.453 0 1.102.054 1.832.165 2.189.11.36.468.675 1.074.95a20.416 20.416 0 0 0 5.37 1.735 32.78 32.78 0 0 0 5.701.496c2.258 0 4.461-.263 6.61-.785a16.746 16.746 0 0 0 5.865-2.686zm-504.784 42.39c-5.057-1.966-7.248-3.315-7.248-6.236 0-2.247 1.854-4.55 6.237-4.55 3.54 0 6.18 1.067 7.584 1.797l1.63-5.562c-1.967-1.012-4.944-1.91-9.046-1.91-8.259 0-13.428 4.663-13.428 10.9 0 5.449 3.99 8.764 10.282 11.011 4.776 1.742 6.686 3.428 6.686 6.293 0 3.09-2.472 5.169-6.855 5.169-3.54 0-6.967-1.124-9.158-2.416l-1.573 5.73c2.079 1.293 6.236 2.417 10.282 2.417 9.72 0 14.327-5.281 14.327-11.406 0-5.45-3.147-8.765-9.72-11.236zm17.75-10.056H46.05v32.08h6.91v-32.08h10.9v-5.788H35.261v5.788zm32.92 19.496h14.327v-4.776H68.181v4.776zm49.887 10.674c5.562-2.247 9.776-8.37 9.776-17.473 0-10.731-6.517-19.159-17.473-19.159-10.844 0-18.092 8.203-18.092 19.946 0 12.304 7.81 18.766 16.575 19.215.843.056 1.685.225 2.472.562A152.072 152.072 0 0 0 126.102 240l1.967-5.506c-3.09-.562-6.742-1.349-10.001-2.248v-.225zm-7.978-3.033c-6.63 0-10.507-6.293-10.507-13.878s3.652-14.159 10.563-14.159c6.855 0 10.394 6.687 10.394 13.878 0 7.978-3.82 14.159-10.45 14.159zm51.628-10.844c0 7.416-2.978 10.844-7.978 10.844-4.664 0-7.754-3.428-7.754-10.844v-22.08h-6.91v21.686c0 11.912 5.674 16.8 14.439 16.8 9.102 0 15.114-5.17 15.114-16.856v-21.63h-6.91v22.08zm27.075-1.011h14.27v-5.62h-14.27v-9.774h15.113v-5.676h-22.024v37.869h22.867v-5.675h-15.956v-11.124zm50.955-7.866c0 5.787.112 10.675.618 15.732h-.112c-1.742-4.102-3.99-8.484-6.462-12.698l-9.775-16.238h-7.923v37.869h6.405v-13.54c0-6.237-.112-11.238-.393-16.126l.225-.056c1.854 4.27 4.326 8.877 6.742 13.035l9.888 16.687h7.192v-37.869h-6.405v13.204zm16.176-7.416h10.787v32.08h6.91v-32.08h10.9v-5.788h-28.597v5.788zm38.369 32.08h6.91v-37.868h-6.91v37.869zm43.765-24.664c0 5.787.112 10.675.618 15.732h-.113c-1.741-4.102-3.989-8.484-6.461-12.698l-9.776-16.238h-7.922v37.869h6.405v-13.54c0-6.237-.112-11.238-.393-16.126l.224-.056c1.855 4.27 4.327 8.877 6.742 13.035l9.89 16.687h7.19v-37.869h-6.404v13.204zm17.411 12.08h14.327v-4.776H355.47v4.776zm32.247-4.214h14.27v-5.62h-14.27v-9.774h15.114v-5.676h-22.025v37.869h22.867v-5.675h-15.956v-11.124zm50.955-7.866c0 5.787.112 10.675.618 15.732h-.112c-1.742-4.102-3.99-8.484-6.462-12.698l-9.776-16.238h-7.922v37.869h6.405v-13.54c0-6.237-.112-11.238-.393-16.126l.225-.056c1.854 4.27 4.326 8.877 6.742 13.035l9.888 16.687h7.192v-37.869h-6.405v13.204zm17.411 12.08h14.328v-4.776h-14.328v4.776zm37.922-15.564c-1.292 2.753-2.36 5.114-3.259 7.53h-.112c-1.067-2.585-2.023-4.72-3.315-7.53l-4.495-9.72h-7.922l11.968 22.081v15.788h6.91v-15.957l12.585-21.912h-7.81l-4.55 9.72zm39.998 7.585c-1.46 4.607-2.865 9.214-3.877 13.71h-.112c-.955-4.608-2.247-8.99-3.708-13.766l-5.17-17.249h-7.528l12.248 37.869h7.922l13.091-37.869h-7.36l-5.506 17.305zm29.211 3.765h14.271v-5.62h-14.27v-9.774h15.113v-5.676h-22.025v37.869h22.867v-5.675h-15.956v-11.124zm34.269-21.07h-6.911v37.869h22.473v-5.788h-15.562v-32.08zm26.122 37.869h6.91v-37.869h-6.91v37.869zm43.764-24.665c0 5.787.113 10.675.618 15.732h-.112c-1.742-4.102-3.99-8.484-6.462-12.698l-9.776-16.238h-7.922v37.869h6.406v-13.54c0-6.237-.113-11.238-.394-16.126l.225-.056c1.854 4.27 4.326 8.877 6.742 13.035l9.889 16.687h7.191v-37.869h-6.405v13.204zm26.626 7.866h14.271v-5.62h-14.27v-9.774h15.113v-5.676h-22.024v37.869h22.867v-5.675h-15.957v-11.124zm40.562-5.225c-5.058-1.967-7.249-3.316-7.249-6.237 0-2.247 1.854-4.55 6.237-4.55 3.54 0 6.18 1.067 7.585 1.797l1.63-5.562c-1.967-1.012-4.945-1.91-9.047-1.91-8.258 0-13.428 4.663-13.428 10.9 0 5.449 3.99 8.764 10.282 11.011 4.776 1.742 6.686 3.428 6.686 6.293 0 3.09-2.472 5.169-6.854 5.169-3.54 0-6.967-1.124-9.158-2.416l-1.574 5.73c2.079 1.293 6.237 2.417 10.282 2.417 9.72 0 14.327-5.281 14.327-11.406 0-5.45-3.146-8.765-9.72-11.236z" fill="#6d6d6d"/></svg>